<svg width="16" height="16" viewBox="0 0 16 16" fill="none" xmlns="http://www.w3.org/2000/svg">
<path d="M8 1.625C10.0625 1.625 10.3438 1.625 11.1875 1.625C11.9375 1.625 12.3125 1.8125 12.5938 1.90625C12.9687 2.09375 13.25 2.1875 13.5312 2.46875C13.8125 2.75 14 3.03125 14.0938 3.40625C14.1875 3.6875 14.2812 4.0625 14.375 4.8125C14.375 5.65625 14.375 5.84375 14.375 8C14.375 10.1562 14.375 10.3438 14.375 11.1875C14.375 11.9375 14.1875 12.3125 14.0938 12.5938C13.9062 12.9687 13.8125 13.25 13.5312 13.5312C13.25 13.8125 12.9687 14 12.5938 14.0938C12.3125 14.1875 11.9375 14.2812 11.1875 14.375C10.3438 14.375 10.1562 14.375 8 14.375C5.84375 14.375 5.65625 14.375 4.8125 14.375C4.0625 14.375 3.6875 14.1875 3.40625 14.0938C3.03125 13.9062 2.75 13.8125 2.46875 13.5312C2.1875 13.25 2 12.9687 1.90625 12.5938C1.8125 12.3125 1.71875 11.9375 1.625 11.1875C1.625 10.3438 1.625 10.1562 1.625 8C1.625 5.84375 1.625 5.65625 1.625 4.8125C1.625 4.0625 1.8125 3.6875 1.90625 3.40625C2.09375 3.03125 2.1875 2.75 2.46875 2.46875C2.75 2.1875 3.03125 2 3.40625 1.90625C3.6875 1.8125 4.0625 1.71875 4.8125 1.625C5.65625 1.625 5.9375 1.625 8 1.625ZM8 0.21875C5.84375 0.21875 5.65625 0.21875 4.8125 0.21875C3.96875 0.21875 3.40625 0.406251 2.9375 0.593751C2.46875 0.781251 2 1.0625 1.53125 1.53125C1.0625 2 0.875001 2.375 0.593751 2.9375C0.406251 3.40625 0.3125 3.96875 0.21875 4.8125C0.21875 5.65625 0.21875 5.9375 0.21875 8C0.21875 10.1562 0.21875 10.3438 0.21875 11.1875C0.21875 12.0312 0.406251 12.5938 0.593751 13.0625C0.781251 13.5312 1.0625 14 1.53125 14.4688C2 14.9375 2.375 15.125 2.9375 15.4063C3.40625 15.5938 3.96875 15.6875 4.8125 15.7812C5.65625 15.7812 5.9375 15.7812 8 15.7812C10.0625 15.7812 10.3438 15.7812 11.1875 15.7812C12.0312 15.7812 12.5938 15.5938 13.0625 15.4063C13.5312 15.2188 14 14.9375 14.4688 14.4688C14.9375 14 15.125 13.625 15.4063 13.0625C15.5938 12.5938 15.6875 12.0312 15.7812 11.1875C15.7812 10.3438 15.7812 10.0625 15.7812 8C15.7812 5.9375 15.7812 5.65625 15.7812 4.8125C15.7812 3.96875 15.5938 3.40625 15.4063 2.9375C15.2188 2.46875 14.9375 2 14.4688 1.53125C14 1.0625 13.625 0.875001 13.0625 0.593751C12.5938 0.406251 12.0312 0.3125 11.1875 0.21875C10.3438 0.21875 10.1562 0.21875 8 0.21875Z" fill="#FEFEFE"/>
<path d="M8 3.96875C5.75 3.96875 3.96875 5.75 3.96875 8C3.96875 10.25 5.75 12.0312 8 12.0312C10.25 12.0312 12.0312 10.25 12.0312 8C12.0312 5.75 10.25 3.96875 8 3.96875ZM8 10.625C6.59375 10.625 5.375 9.5 5.375 8C5.375 6.59375 6.5 5.375 8 5.375C9.40625 5.375 10.625 6.5 10.625 8C10.625 9.40625 9.40625 10.625 8 10.625Z" fill="#FEFEFE"/>
<path d="M12.125 4.8125C12.6428 4.8125 13.0625 4.39277 13.0625 3.875C13.0625 3.35723 12.6428 2.9375 12.125 2.9375C11.6072 2.9375 11.1875 3.35723 11.1875 3.875C11.1875 4.39277 11.6072 4.8125 12.125 4.8125Z" fill="#FEFEFE"/>
</svg>
