<svg width="15" height="13" viewBox="0 0 15 13" fill="none" xmlns="http://www.w3.org/2000/svg">
<path d="M1.03117 5.35153C5.05769 3.59723 7.74267 2.4407 9.08611 1.88192C12.9219 0.286481 13.7189 0.00933775 14.2384 8.87211e-05C14.3527 -0.00182646 14.6082 0.0264902 14.7737 0.160771C14.9134 0.274155 14.9518 0.427321 14.9702 0.534821C14.9886 0.642322 15.0115 0.887211 14.9933 1.07856C14.7855 3.26259 13.8861 8.56265 13.4285 11.0088C13.2349 12.0439 12.8536 12.3909 12.4845 12.4249C11.6824 12.4987 11.0734 11.8948 10.2965 11.3855C9.08085 10.5887 8.39409 10.0926 7.21409 9.315C5.8504 8.41635 6.73442 7.92244 7.51159 7.11524C7.71497 6.90399 11.249 3.68949 11.3174 3.39789C11.326 3.36142 11.3339 3.22547 11.2532 3.15369C11.1724 3.08191 11.0532 3.10646 10.9672 3.12598C10.8453 3.15365 8.90325 4.43725 5.14115 6.97678C4.58991 7.3553 4.09062 7.53973 3.64327 7.53006C3.15011 7.51941 2.20146 7.25122 1.49623 7.02198C0.631245 6.7408 -0.0562297 6.59215 0.00363389 6.11463C0.0348145 5.86591 0.377327 5.61154 1.03117 5.35153Z" fill="#FEFEFE"/>
</svg>
