<svg width="16" height="10" viewBox="0 0 16 10" fill="none" xmlns="http://www.w3.org/2000/svg">
<path fill-rule="evenodd" clip-rule="evenodd" d="M2.35055 0H0.60015C0.10003 0 0 0.24779 0 0.520948C0 1.0089 0.59343 3.42884 2.7631 6.62942C4.20955 8.81516 6.24745 10 8.1019 10C9.21454 10 9.35219 9.73684 9.35219 9.28358V7.63158C9.35219 7.10526 9.45759 7.00021 9.80989 7.00021C10.0695 7.00021 10.5146 7.13684 11.5531 8.19068C12.7399 9.43968 12.9356 10 13.6031 10H15.3535C15.8537 10 16.1037 9.73684 15.9595 9.21753C15.8016 8.69995 15.235 7.94895 14.4831 7.05879C14.0751 6.55137 13.4631 6.00495 13.2777 5.73168C13.0181 5.38042 13.0922 5.22426 13.2777 4.91205C13.2777 4.91205 15.4103 1.75047 15.6328 0.677158C15.7441 0.28679 15.6328 0 15.1035 0H13.3531C12.908 0 12.7028 0.24779 12.5915 0.520948C12.5915 0.520948 11.7014 2.80432 10.4404 4.28753C10.0324 4.71684 9.84699 4.85347 9.62444 4.85347C9.5132 4.85347 9.35214 4.71684 9.35214 4.32658V0.677158C9.35214 0.208737 9.223 0 8.85205 0H6.1014C5.8233 0 5.656 0.217368 5.656 0.423421C5.656 0.867421 6.2865 0.969842 6.3515 2.21884V4.93158C6.3515 5.52632 6.2494 5.63416 6.0269 5.63416C5.4335 5.63416 3.99005 3.34058 3.13395 0.716158C2.9662 0.206053 2.7979 0 2.35055 0Z" fill="#FEFEFE"/>
</svg>
